<svg xmlns="http://www.w3.org/2000/svg" viewBox="0 0 24 24" fill="none" stroke="#0ea5e9" stroke-width="2" stroke-linecap="round" stroke-linejoin="round">
  <path d="M9.5 2A2.5 2.5 0 0 1 12 4.5v15a2.5 2.5 0 0 1-4.96.44 2.5 2.5 0 0 1-2.96-3.12 2.5 2.5 0 0 1-1.04-1.32A2.5 2.5 0 0 1 4.5 12a2.5 2.5 0 0 1 1.32-1.04A2.5 2.5 0 0 1 7.08 9.96 2.5 2.5 0 0 1 9.5 2Z"/>
  <path d="M14.5 2A2.5 2.5 0 0 0 12 4.5v15a2.5 2.5 0 0 0 4.96.44 2.5 2.5 0 0 0 2.96-3.12 2.5 2.5 0 0 0 1.04-1.32A2.5 2.5 0 0 0 19.5 12a2.5 2.5 0 0 0-1.32-1.04A2.5 2.5 0 0 0 16.92 9.96 2.5 2.5 0 0 0 14.5 2Z"/>
</svg> 